<?xml version="1.0" standalone="no"?>
<!DOCTYPE svg PUBLIC "-//W3C//DTD SVG 20010904//EN"
 "http://www.w3.org/TR/2001/REC-SVG-20010904/DTD/svg10.dtd">
<svg version="1.0" xmlns="http://www.w3.org/2000/svg"
 width="88.000000pt" height="88.000000pt" viewBox="0 0 88.000000 88.000000"
 preserveAspectRatio="xMidYMid meet">
<metadata>
Created by potrace 1.11, written by Peter Selinger 2001-2013
</metadata>
<g transform="translate(0.000000,88.000000) scale(0.100000,-0.100000)"
fill="#000000" stroke="none">
<path d="M397 863 c-4 -3 -7 -21 -7 -39 0 -59 -18 -83 -76 -100 -67 -19 -98
-53 -83 -91 18 -47 84 -83 172 -92 4 -1 7 -5 7 -10 0 -12 -81 -6 -128 10 -20
6 -49 20 -64 31 -45 31 -91 34 -133 8 -62 -38 -84 -114 -46 -161 l19 -23 371
-4 c394 -4 393 -4 411 43 9 24 -14 107 -42 153 -12 19 -39 47 -60 62 -38 28
-43 29 -124 23 -60 -4 -84 -3 -84 6 0 6 7 11 16 11 8 0 29 13 45 29 25 26 28
33 18 54 -21 47 -186 117 -212 90z"/>
<path d="M104 218 c43 -194 21 -182 324 -183 130 0 249 4 265 8 15 5 32 18 38
29 11 20 13 29 29 113 6 28 12 61 15 75 3 14 8 43 11 65 5 38 4 39 -10 21 -9
-11 -16 -30 -16 -42 0 -12 -7 -27 -15 -34 -12 -10 -16 -8 -25 15 -5 14 -10 35
-10 45 0 22 -30 35 -42 18 -4 -7 -8 -22 -8 -34 0 -11 -6 -29 -14 -39 -13 -18
-14 -18 -25 3 -6 11 -11 29 -11 40 0 22 -27 49 -38 38 -4 -4 -11 -26 -17 -47
-12 -48 -27 -53 -39 -13 -22 75 -43 79 -63 12 -10 -35 -17 -46 -28 -42 -8 4
-15 19 -15 34 0 16 -8 36 -17 45 -16 16 -17 16 -30 -1 -7 -10 -13 -27 -13 -38
0 -28 -15 -50 -28 -42 -5 3 -13 23 -17 43 -4 21 -12 41 -18 45 -16 10 -37 -11
-37 -36 0 -26 -24 -63 -32 -50 -3 5 -11 28 -17 52 -17 60 -35 55 -56 -16 -14
-46 -28 -45 -39 5 -5 23 -15 44 -21 47 -7 2 0 -49 19 -136z"/>
</g>
</svg>
